<svg xmlns="http://www.w3.org/2000/svg" xml:space="preserve" style="shape-rendering:geometricPrecision;text-rendering:geometricPrecision;image-rendering:optimizeQuality;fill-rule:evenodd;clip-rule:evenodd" viewBox="0 0 7640 7640" id="linkedln">
  <g id="Layer_x0020_1">
    <rect width="7620" height="7620" x="10" y="10" rx="1690" ry="1690" style="stroke:#000;stroke-width:20;fill:#000"></rect>
    <g id="_2087252507776">
      <path d="M1737 1064c368,0 661,298 659,663 -3,366 -301,664 -669,664 -366,0 -661,-298 -659,-664 3,-365 303,-663 669,-663z" style="fill:#fff"></path>
    </g>
    <g id="_2087252508768">
      <polygon points="2297 2892 2269 6576 1123 6576 1151 2892" style="fill:#fff"></polygon>
    </g>
    <g id="_2087252508864">
      <path d="M5212 2803c1160,0 1367,760 1359,1753l-15 2020 -1143 0 13 -1790c4,-428 -2,-978 -588,-978 -596,0 -689,465 -692,947l-14 1821 -1146 0 28 -3684 1097 0 -4 504 17 0c155,-288 530,-593 1088,-593z" style="fill:#fff"></path>
    </g>
  </g>
</svg>
